<svg xmlns="http://www.w3.org/2000/svg" viewBox="0 0 353 588">
  <g id="Layer_10" data-name="Layer 10">
    <path class="path" d="M92.28,186.36c1.63-3.54-3-6.06-3.06-12.27-.06-6,4.28-6.74,5.11-14.32.5-4.55-1-4.89-1-11.25s1.52-6.47,2-13.3c.69-9-1.77-11.61,0-19.43a32.61,32.61,0,0,1,2.05-6.13,81,81,0,0,1,1-32.73c.61-2.49,2.79-8.14,7.16-19.43,7.9-20.42,10.86-26,15.34-31.7a54,54,0,0,1,10.23-10.23,54,54,0,0,1,17.38-8.18c14.57-4,26.88-1.35,32.73,0a76,76,0,0,1,22.5,9.2A97.23,97.23,0,0,1,215,30.91,94.91,94.91,0,0,1,228.3,63.64c2.74,13.33.59,16.69,4.09,30.68a87.18,87.18,0,0,0,3.07,10.22c3.14,8.37,5.18,9.51,7.16,16.37a59.72,59.72,0,0,1,2,12.27c.47,6.07-.18,8.25,1,13.29a34.28,34.28,0,0,0,3.06,8.18c2.8,5.14,4.5,4.74,7.16,9.21.65,1.08,5.29,9,3.07,15.34-.4,1.15-2,5.11-2,5.11h0a49.56,49.56,0,0,1,10.22,8.18c3.69,4.2,2.58,6,6.14,12.28,3.07,5.4,4.86,5.73,10.23,12.27a77.74,77.74,0,0,1,11.25,17.38c3.44,7.77,1.51,8.54,5.11,21.48,1.57,5.65,3.77,11.26,8.18,22.5.66,1.69,3.32,8.44,7.16,17.38,3.64,8.5,5.85,13.64,9.2,20.46,4.66,9.47,5.93,10.79,9.21,18.41,2.86,6.67,4.3,10,5.11,14.31,1.09,5.79.64,10.08-1,21.48-2.28,15.58-3.42,23.38-4.09,25.57-2.84,9.22-5.87,19.06-14.32,27.61-4.59,4.65-7.33,5.41-8.18,9.2-1.43,6.35,4.68,11.14,11.25,20.46,1.85,2.62,6,12,14.32,30.68,3.54,8,8.09,18.37,13.29,30.68q-19.35.58-38.86,1-123.45,2.73-241.35-1c.45-5.24.81-10.69,1-16.36.32-8.65.29-16.85,0-24.55a25.3,25.3,0,0,1-14.32-4.09c-5.86-4-8.37-9.83-10.23-15.34-5.06-15-5-26.67-6.13-45-1.13-18.08-1.68-14.43-3.07-35.79-1.19-18.3-.75-20.32-2.05-37.84-1.44-19.6-2.17-19.45-2-27.61.3-18.25,4.21-34.88,5.11-34.77.58.06-.75-3.5-3.07-18.41-3.26-21.06-6.53-24.31-4.09-32.73,2.63-9.06,9.17-14.78,13.3-18.41s11.23-9.84,21.47-11.25c5.14-.7,9.42,0,18.41-2C89.55,189.19,91.48,188.11,92.28,186.36Z" fill="none" stroke="#fff" stroke-miterlimit="10"/>
  </g>
</svg>
